<svg width="220" height="62" viewBox="0 0 220 62" fill="none" xmlns="http://www.w3.org/2000/svg">
<path d="M17.6617 35.8695H14.5032C13.1249 35.8695 11.9111 35.9962 10.9374 36.3145C10.0473 36.5681 9.23544 36.9511 8.66901 37.4608C8.10259 37.9706 7.698 38.5451 7.45255 39.1817C7.29071 39.883 7.12888 40.5195 7.12888 41.2856V41.8601C7.12888 42.7529 7.29071 43.5162 7.6953 44.0907C8.01897 44.7273 8.50448 45.2371 9.0736 45.6201C9.55911 46.0031 10.2092 46.2566 10.8565 46.4481C11.5038 46.6396 12.073 46.7044 12.7203 46.7044C13.2058 46.7044 13.7722 46.6396 14.3414 46.5129C14.9887 46.3214 15.4769 46.1299 15.9624 45.7495C16.4479 45.4313 16.8525 44.9835 17.1789 44.4737C17.5026 43.964 17.6644 43.3274 17.6644 42.5614V35.8695H17.6617ZM1.78289 22.9954C1.62106 22.7392 1.62106 22.4856 1.62106 22.1673C1.70198 21.9111 1.94473 21.6576 2.51116 21.4013C3.07758 21.083 3.72762 20.7 4.37497 20.3818C5.02231 20.0635 5.75327 19.7452 6.56245 19.489C7.37163 19.2327 8.26443 19.0439 9.31636 18.9144C10.2874 18.7229 11.4229 18.6582 12.7203 18.6582C14.4223 18.6582 15.9597 18.8497 17.4189 19.2948C18.8782 19.7398 20.1729 20.3791 21.2275 21.2071C22.363 22.0352 23.2531 22.9927 23.8196 24.139C24.4669 25.2234 24.7906 26.4965 24.7906 27.8343V42.8095C24.7906 43.9559 24.6287 44.9754 24.2242 45.8682C23.7386 46.761 23.2531 47.5244 22.5222 48.1636C21.8748 48.8649 21.063 49.3747 20.2538 49.8197C19.3637 50.2648 18.4709 50.6478 17.5808 50.904C16.6907 51.2223 15.7979 51.4138 14.9078 51.4785C14.0986 51.6053 13.2867 51.67 12.6394 51.67C11.2611 51.67 9.80456 51.4785 8.34534 51.1603C6.8052 50.7773 5.4296 50.2054 4.21313 49.4394C2.99666 48.6113 1.94473 47.6565 1.21647 46.4454C0.407287 45.1696 0 43.705 0 41.9842V41.2829C0 39.6888 0.323672 38.3509 0.971016 37.1399C1.61836 35.9288 2.43024 34.974 3.56309 34.1459C4.69864 33.3799 5.99333 32.7433 7.45255 32.3603C8.99269 31.9773 10.611 31.7858 12.313 31.7858H17.659V28.2821C17.659 27.7723 17.5781 27.1977 17.3353 26.6259C17.0926 26.0514 16.7689 25.4796 16.2834 25.0318C15.7979 24.5221 15.1478 24.077 14.4196 23.756C13.6913 23.4378 12.7176 23.2463 11.6657 23.2463C9.9637 23.2463 8.5881 23.4378 7.53347 23.8828C6.48153 24.3279 5.58874 24.7756 4.77956 25.2854C4.5368 25.4769 4.21313 25.5416 3.88946 25.6037C3.56579 25.6037 3.32303 25.4769 3.08028 25.2207L1.78289 22.99V22.9954Z" fill="#0A6324"/>
<path d="M57.2624 32.3014H67.3098V27.4572C67.3098 26.9474 67.2288 26.4376 66.9861 25.9278C66.7433 25.4828 66.4197 25.035 65.9341 24.7167C65.5296 24.3337 64.9631 24.0154 64.394 23.8239C63.7467 23.6324 63.0966 23.5057 62.4493 23.5057C61.6401 23.5057 60.9901 23.6324 60.3427 23.8239C59.7763 24.0154 59.2072 24.3337 58.7217 24.7167C58.3171 25.035 57.9125 25.4801 57.6697 25.9278C57.427 26.4376 57.2651 26.9474 57.2651 27.4572V32.3014H57.2624ZM50.1336 27.4572C50.1336 26.2461 50.4572 25.0997 51.1046 24.0154C51.7519 22.9311 52.5638 22.041 53.6966 21.213C54.7486 20.447 56.046 19.8104 57.5861 19.3654C59.0453 18.8556 60.5828 18.6641 62.2847 18.6641C63.9867 18.6641 65.5269 18.8556 66.9025 19.3654C68.3617 19.8104 69.5755 20.4497 70.6301 21.213C71.682 22.041 72.4939 22.9338 73.0603 24.0154C73.6268 25.0997 73.8695 26.2461 73.8695 27.4572V35.2954C73.8695 35.5516 73.7886 35.8052 73.5458 35.9967C73.3031 36.1882 72.9794 36.2529 72.6557 36.2529H57.2624V42.8801C57.2624 43.3899 57.4243 43.8997 57.667 44.4095C57.9098 44.8545 58.3144 45.3023 58.719 45.6205C59.2045 46.0036 59.7709 46.2571 60.34 46.5133C60.9874 46.7048 61.6374 46.8316 62.4466 46.8316C63.1748 46.8316 63.8249 46.7048 64.3913 46.5133C65.0387 46.2571 65.5269 46.0036 65.9314 45.6205C66.417 45.2375 66.7406 44.7925 66.9834 44.3447C67.2261 43.835 67.3071 43.3252 67.3071 42.8154V41.7311C67.3071 41.4748 67.388 41.286 67.6307 41.1566C67.7926 41.0298 68.0353 40.9651 68.359 40.9651H72.8958C73.1385 40.9651 73.3004 41.0298 73.5431 41.0918C73.705 41.2186 73.7859 41.4101 73.7859 41.7931V42.8774C73.7859 44.0885 73.5431 45.2348 72.9767 46.3191C72.4103 47.4034 71.5984 48.2935 70.5465 49.1216C69.5755 49.8876 68.359 50.5242 66.8998 50.9692C65.5215 51.479 63.984 51.6705 62.282 51.6705C60.5801 51.6705 59.0426 51.4143 57.5834 50.9692C56.0433 50.5242 54.7486 49.8849 53.694 49.1216C52.5611 48.2935 51.7492 47.3387 51.1019 46.3191C50.4545 45.2348 50.1309 44.0885 50.1309 42.8774V27.4572H50.1336Z" fill="#0A6324"/>
<path d="M93.1441 28.3496C93.1441 27.7751 93.0632 27.2653 92.8204 26.7556C92.5776 26.3105 92.254 25.8628 91.8494 25.4798C91.4448 25.0967 90.8784 24.7785 90.2283 24.5249C89.581 24.3334 88.9309 24.2066 88.1218 24.2066C87.3935 24.2066 86.6625 24.3334 86.0961 24.5249C85.4488 24.7164 84.8796 25.0347 84.4751 25.353C84.0705 25.736 83.6659 26.181 83.4204 26.6288C83.1777 27.1386 83.0158 27.6484 83.0158 28.2229V50.6533C83.0158 50.9716 82.9349 51.2279 82.6922 51.4194C82.5303 51.6109 82.2876 51.6756 81.9639 51.6756H76.9416C76.6988 51.6756 76.4561 51.6109 76.2133 51.4194C75.9706 51.2279 75.8896 50.9743 75.8896 50.6533V28.2229C75.8896 27.0118 76.2133 25.8655 76.7798 24.7812C77.3462 23.6969 78.239 22.742 79.2909 21.914C80.3428 21.0859 81.6402 20.4494 83.0994 19.9396C84.5587 19.4945 86.177 19.2383 87.879 19.2383C89.9046 19.2383 91.6066 19.4918 93.1441 19.9396C94.6842 20.4494 95.9789 21.0859 97.0335 21.8519C98.0855 22.68 98.8973 23.6375 99.4638 24.7191C100.03 25.8034 100.273 26.9498 100.273 28.2229V50.7181C100.273 51.0364 100.192 51.2279 99.9493 51.4194C99.7065 51.6109 99.4638 51.6756 99.221 51.6756H94.1987C93.9559 51.6756 93.7132 51.6109 93.4704 51.4194C93.2277 51.2279 93.1468 51.0364 93.1468 50.7181V28.3496H93.1441Z" fill="#0A6324"/>
<path d="M106.977 35.1024C106.977 35.8037 107.139 36.4402 107.462 37.0768C107.786 37.7134 108.272 38.2231 108.841 38.7329C109.488 39.178 110.138 39.561 110.947 39.8172C111.756 40.1355 112.568 40.2623 113.539 40.2623C114.429 40.2623 115.322 40.1355 116.05 39.8172C116.86 39.561 117.591 39.1807 118.157 38.7329C118.723 38.2231 119.209 37.7134 119.535 37.0768C119.859 36.4402 120.021 35.801 120.021 35.1024V27.4556C120.021 26.7544 119.859 26.0531 119.535 25.4165C119.212 24.78 118.726 24.2054 118.157 23.7604C117.591 23.3153 116.86 22.9323 116.05 22.6761C115.322 22.3578 114.429 22.231 113.539 22.231C112.568 22.231 111.756 22.3578 110.947 22.6761C110.138 22.9323 109.488 23.3126 108.841 23.7604C108.274 24.2054 107.786 24.78 107.462 25.4165C107.139 26.0531 106.977 26.6923 106.977 27.3909V35.1024ZM125.693 61.2308C125.693 61.4844 125.612 61.6759 125.45 61.8053C125.289 61.9968 125.046 62.0616 124.641 62.0616H122.292C122.049 62.0616 121.806 61.9968 121.726 61.8053C121.564 61.6138 121.483 61.4223 121.483 61.2308V56.7695C121.483 55.2402 120.997 54.0938 119.943 53.5193C118.891 52.8828 117.351 52.6265 115.325 52.6265L110.464 52.5618H109.979C108.843 52.5618 107.791 52.3703 106.82 51.9873C105.849 51.6043 105.118 51.1592 104.471 50.5227C103.824 49.9482 103.336 49.3116 103.012 48.6103C102.688 47.909 102.526 47.2725 102.526 46.5712V46.2529C102.526 44.9151 102.85 43.7687 103.416 42.7491C103.983 41.7943 104.552 40.9636 105.28 40.327C104.471 39.561 103.902 38.7329 103.416 37.8428C103.012 36.888 102.769 35.9305 102.769 34.7841V27.6472C102.769 26.4361 103.093 25.3518 103.659 24.3322C104.226 23.3126 104.957 22.4198 105.928 21.6565C106.899 20.8905 108.034 20.3187 109.332 19.8709C110.629 19.4259 112.005 19.2344 113.464 19.2344C114.192 19.2344 114.842 19.2991 115.489 19.3611C116.218 19.4879 116.868 19.6147 117.434 19.8062H124.563C124.968 19.8062 125.291 19.8709 125.453 19.9977C125.615 20.1245 125.696 20.316 125.696 20.5075V21.7186C125.696 21.9101 125.615 22.0368 125.453 22.2283C125.291 22.4198 124.968 22.4846 124.563 22.4846H122.052C122.78 23.1859 123.268 23.9492 123.673 24.842C124.078 25.7348 124.239 26.6896 124.239 27.7092V34.7194C124.239 35.9952 123.997 37.1415 123.43 38.1611C122.864 39.2454 122.052 40.1355 121.081 40.8368C120.191 41.6001 119.055 42.1746 117.758 42.6224C116.38 43.0674 115.004 43.2589 113.545 43.2589C111.519 43.2589 109.736 42.8759 108.118 42.1746C107.47 42.6844 107.063 43.1942 106.82 43.7687C106.659 44.3432 106.497 45.1066 106.497 45.9346V46.0614C106.497 46.5064 106.659 46.9542 106.82 47.3992C107.063 47.8443 107.387 48.2273 107.872 48.5456C108.277 48.8638 108.762 49.1201 109.332 49.3089C109.979 49.5004 110.629 49.6272 111.276 49.6272H116.137C117.596 49.6272 118.891 49.7539 120.107 49.9455C121.324 50.137 122.295 50.52 123.104 51.0298C123.913 51.5395 124.563 52.2408 125.049 53.0689C125.453 53.9617 125.696 55.0433 125.696 56.2544V61.2254L125.693 61.2308Z" fill="#6FA52C"/>
<path d="M126.79 28.2013C126.79 26.6612 127.141 25.3341 127.855 24.1986C128.557 23.0738 129.45 22.1378 130.515 21.4042C131.58 20.6597 132.743 20.1203 134.027 19.7696C135.311 19.419 136.511 19.2383 137.647 19.2383C138.415 19.2383 139.16 19.2491 139.888 19.2706C140.603 19.2922 141.226 19.3354 141.725 19.3974C142.494 19.5026 142.874 19.7912 142.874 20.2686V21.5849C142.874 21.9355 142.725 22.1702 142.415 22.297C142.119 22.4238 141.781 22.4669 141.401 22.4238C140.875 22.3806 140.376 22.359 139.888 22.359H138.361C137.199 22.359 136.16 22.5289 135.257 22.858C134.353 23.1871 133.568 23.6429 132.948 24.2066C132.314 24.7812 131.826 25.4393 131.502 26.1703C131.165 26.9039 131.003 27.678 131.003 28.4845V50.6399C131.003 51.0013 130.868 51.2548 130.585 51.4248C130.315 51.5839 130.073 51.6702 129.857 51.6702H127.737C127.521 51.6702 127.319 51.5947 127.103 51.4356C126.901 51.2764 126.793 51.0525 126.793 50.7666V28.1986L126.79 28.2013Z" fill="#6FA52C"/>
<path d="M160.039 35.1683H155.664C153.881 35.1683 152.341 35.3598 151.127 35.7429C149.991 36.1259 149.02 36.6357 148.292 37.2722C147.564 37.8467 146.995 38.6101 146.752 39.4381C146.428 40.3309 146.266 41.159 146.266 42.1138V42.9419C146.266 44.0882 146.509 45.1078 146.995 45.8738C147.48 46.7019 148.13 47.3384 148.858 47.8482C149.587 48.358 150.399 48.6763 151.208 48.9325C152.017 49.124 152.829 49.2508 153.476 49.2508C154.204 49.2508 154.854 49.124 155.664 48.9972C156.392 48.8057 157.123 48.4874 157.77 48.0424C158.418 47.5973 158.987 47.0876 159.391 46.3863C159.796 45.685 160.039 44.8569 160.039 43.8374V35.171V35.1683ZM143.998 23.3786C143.917 23.1871 143.836 22.9335 143.917 22.742C143.917 22.4858 144.16 22.297 144.564 22.0407C144.969 21.7225 145.535 21.4042 146.024 21.0859C146.59 20.7676 147.24 20.4494 147.887 20.1931C148.616 19.8748 149.428 19.6833 150.318 19.4918C151.208 19.3003 152.262 19.2383 153.476 19.2383C155.178 19.2383 156.635 19.4918 158.013 19.9396C159.31 20.3846 160.443 21.0239 161.417 21.7872C162.307 22.6153 163.038 23.5081 163.523 24.5276C164.009 25.5472 164.252 26.6315 164.252 27.7131V44.0262C164.252 45.5555 163.847 46.8286 163.116 47.9129C162.388 48.9325 161.414 49.7606 160.362 50.4618C159.227 51.0984 158.094 51.5461 156.877 51.7997C155.661 52.118 154.528 52.2447 153.635 52.2447C152.338 52.2447 151.043 52.0532 149.665 51.735C148.287 51.3519 147.073 50.8422 145.937 50.0788C144.804 49.3155 143.912 48.358 143.183 47.2116C142.455 46.0653 142.048 44.6627 142.048 43.0066V42.1785C142.048 40.7139 142.372 39.3734 142.857 38.165C143.423 36.9539 144.235 35.9344 145.287 35.1063C146.339 34.2782 147.556 33.577 149.015 33.1319C150.555 32.6869 152.173 32.4953 153.956 32.4953H160.033V27.7158C160.033 27.206 159.952 26.6315 159.629 25.9302C159.386 25.2936 158.981 24.7191 158.412 24.1446C157.846 23.5081 157.115 23.0603 156.225 22.68C155.335 22.297 154.199 22.1055 152.902 22.1055C152.012 22.1055 151.2 22.1702 150.552 22.297C149.905 22.4238 149.336 22.6153 148.769 22.8715C148.284 23.063 147.798 23.3165 147.391 23.6348C146.987 23.8911 146.582 24.2093 146.175 24.5276C145.932 24.6544 145.608 24.7839 145.365 24.7839C145.042 24.7839 144.799 24.6571 144.637 24.4656L143.99 23.3813L143.998 23.3786Z" fill="#6FA52C"/>
<path d="M166.043 43.1326C166.043 42.5581 166.448 42.2398 167.259 42.2398H169.123C169.447 42.2398 169.69 42.3046 169.852 42.4961C170.013 42.6876 170.094 42.8791 170.094 43.1326V44.2169C170.094 44.9182 170.256 45.6195 170.58 46.1913C170.903 46.8279 171.389 47.3377 171.958 47.7854C172.525 48.2305 173.255 48.6135 174.065 48.8697C174.874 49.1232 175.767 49.2527 176.738 49.2527C177.628 49.2527 178.44 49.1259 179.249 48.8077C180.058 48.5541 180.708 48.1711 181.274 47.6613C181.841 47.2163 182.326 46.6418 182.653 46.0052C182.976 45.3687 183.138 44.7294 183.138 43.9661C183.138 43.2648 182.976 42.6282 182.572 41.9917C182.167 41.4172 181.601 40.7806 180.789 40.1441C180.061 39.5075 179.087 38.8682 177.873 38.2317C176.738 37.5304 175.443 36.7671 173.903 35.9363C172.932 35.4265 172.039 34.9167 171.149 34.3422C170.178 33.7677 169.366 33.1959 168.719 32.4946C167.99 31.7933 167.421 31.092 167.017 30.1992C166.612 29.3712 166.369 28.4136 166.369 27.332C166.369 26.1857 166.612 25.1661 167.098 24.1466C167.664 23.1917 168.314 22.2989 169.204 21.5976C170.175 20.8316 171.23 20.2598 172.446 19.8768C173.744 19.4317 175.119 19.2402 176.578 19.2402C178.119 19.2402 179.494 19.4317 180.792 19.8768C182.089 20.2598 183.222 20.8316 184.115 21.5976C185.005 22.2989 185.736 23.127 186.302 24.1466C186.788 25.1014 187.03 26.1857 187.03 27.332V28.4784C187.03 28.9234 186.707 29.1797 185.976 29.1797H184.031C183.384 29.1797 183.06 28.9261 183.06 28.4163V27.27C183.06 26.5687 182.898 25.9322 182.575 25.2956C182.251 24.659 181.765 24.1493 181.196 23.6395C180.711 23.1944 179.98 22.8762 179.171 22.5552C178.442 22.2989 177.55 22.1722 176.659 22.1722C175.769 22.1722 174.957 22.2989 174.229 22.5552C173.42 22.8735 172.77 23.1917 172.284 23.7015C171.718 24.1466 171.313 24.7211 171.068 25.3576C170.744 25.9942 170.582 26.6334 170.582 27.332C170.582 28.0954 170.744 28.6699 170.906 29.1797C171.149 29.7542 171.553 30.1992 172.123 30.6443C172.608 31.1541 173.339 31.5991 174.229 32.0469C175.119 32.5566 176.174 33.1312 177.388 33.7677C178.523 34.3422 179.737 34.9788 180.873 35.6801C182.089 36.3166 183.222 37.0827 184.115 37.846C185.086 38.674 185.898 39.5668 186.545 40.5864C187.111 41.606 187.435 42.6903 187.435 43.9634C187.435 45.1097 187.192 46.194 186.707 47.1489C186.14 48.1684 185.409 49.0612 184.519 49.8245C183.548 50.5258 182.413 51.1624 181.115 51.6074C179.818 52.0525 178.442 52.244 176.902 52.244C175.038 52.244 173.498 52.0525 172.123 51.6074C170.825 51.1624 169.692 50.5879 168.719 49.8245C167.829 49.1233 167.179 48.2305 166.693 47.2756C166.288 46.2561 166.046 45.2365 166.046 44.1522V43.1326H166.043Z" fill="#6FA52C"/>
<path d="M188.965 43.1326C188.965 42.5581 189.369 42.2398 190.181 42.2398H192.045C192.369 42.2398 192.612 42.3046 192.773 42.4961C192.935 42.6876 193.016 42.8791 193.016 43.1326V44.2169C193.016 44.9182 193.178 45.6195 193.502 46.1913C193.825 46.8279 194.311 47.3377 194.88 47.7854C195.446 48.2305 196.177 48.6135 196.987 48.8697C197.796 49.1232 198.688 49.2527 199.659 49.2527C200.55 49.2527 201.361 49.1259 202.171 48.8077C202.98 48.5541 203.63 48.1711 204.196 47.6613C204.763 47.2163 205.251 46.6418 205.575 46.0052C205.898 45.3687 206.06 44.7294 206.06 43.9661C206.06 43.2648 205.898 42.6282 205.494 41.9917C205.089 41.4172 204.523 40.7806 203.711 40.1441C202.983 39.5075 202.009 38.8682 200.795 38.2317C199.66 37.5304 198.365 36.7671 196.825 35.9363C195.854 35.4265 194.961 34.9167 194.071 34.3422C193.1 33.7677 192.288 33.1959 191.641 32.4946C190.912 31.7933 190.343 31.092 189.939 30.1992C189.534 29.3712 189.291 28.4136 189.291 27.332C189.291 26.1857 189.534 25.1661 190.019 24.1466C190.586 23.1917 191.236 22.2989 192.126 21.5976C193.097 20.8316 194.152 20.2598 195.365 19.8768C196.663 19.4317 198.038 19.2402 199.498 19.2402C201.038 19.2402 202.413 19.4317 203.711 19.8768C205.008 20.2598 206.141 20.8316 207.034 21.5976C207.924 22.2989 208.655 23.127 209.221 24.1466C209.707 25.1014 209.95 26.1857 209.95 27.332V28.4784C209.95 28.9234 209.626 29.1797 208.895 29.1797H206.95C206.303 29.1797 205.979 28.9261 205.979 28.4163V27.27C205.979 26.5687 205.817 25.9322 205.494 25.2956C205.17 24.659 204.685 24.1493 204.115 23.6395C203.63 23.1944 202.899 22.8762 202.09 22.5552C201.361 22.2989 200.469 22.1722 199.579 22.1722C198.688 22.1722 197.877 22.2989 197.148 22.5552C196.339 22.8735 195.689 23.1917 195.204 23.7015C194.637 24.1466 194.233 24.7211 193.987 25.3576C193.663 25.9942 193.502 26.6334 193.502 27.332C193.502 28.0954 193.663 28.6699 193.825 29.1797C194.068 29.7542 194.473 30.1992 195.042 30.6443C195.527 31.1541 196.258 31.5991 197.148 32.0469C198.038 32.5566 199.093 33.1312 200.31 33.7677C201.442 34.3422 202.659 34.9788 203.794 35.6801C205.011 36.3166 206.144 37.0827 207.034 37.846C208.005 38.674 208.817 39.5668 209.464 40.5864C210.03 41.606 210.354 42.6903 210.354 43.9634C210.354 45.1097 210.111 46.194 209.626 47.1489C209.059 48.1684 208.329 49.0612 207.438 49.8245C206.467 50.5258 205.332 51.1624 204.034 51.6074C202.737 52.0525 201.361 52.244 199.821 52.244C197.958 52.244 196.417 52.0525 195.042 51.6074C193.744 51.1624 192.612 50.5879 191.638 49.8245C190.748 49.1233 190.098 48.2305 189.612 47.2756C189.208 46.2561 188.965 45.2365 188.965 44.1522V43.1326Z" fill="#6FA52C"/>
<path d="M211.798 18.0755C211.798 18 211.819 17.9515 211.857 17.9272C211.9 17.9029 211.938 17.8921 211.973 17.8921H214.905C214.964 17.8921 215.021 17.9029 215.064 17.9272C215.11 17.9515 215.132 17.9946 215.132 18.0513V18.3048C215.132 18.3749 215.107 18.4208 215.062 18.4397C215.013 18.4612 214.962 18.472 214.905 18.472H213.861V23.4296C213.861 23.4701 213.848 23.5132 213.815 23.5537C213.783 23.5941 213.735 23.6157 213.664 23.6157H213.308C213.23 23.6157 213.179 23.5968 213.146 23.5537C213.114 23.5132 213.101 23.4701 213.101 23.4296V18.472H211.976C211.941 18.472 211.903 18.4585 211.86 18.4316C211.822 18.4073 211.801 18.3614 211.801 18.3048V18.0782L211.798 18.0755ZM216.211 19.2354L216.232 19.4538L216.243 23.4053C216.243 23.4458 216.229 23.4943 216.2 23.5429C216.173 23.5887 216.119 23.6157 216.043 23.6157H215.72C215.636 23.6157 215.582 23.5914 215.555 23.5429C215.528 23.4916 215.512 23.4458 215.512 23.4053V18.0755C215.512 17.9515 215.582 17.8894 215.72 17.8894H216.165C216.232 17.8894 216.283 17.9083 216.313 17.9488C216.345 17.9838 216.37 18.0243 216.381 18.062L217.708 21.5955L217.751 21.8301L217.799 21.6036L219.143 18.0351C219.156 18.0027 219.175 17.9676 219.199 17.938C219.223 17.9056 219.272 17.8867 219.35 17.8867H219.79C219.86 17.8867 219.914 17.9029 219.946 17.9407C219.981 17.9757 220 18.0216 220 18.0728V23.4026C220 23.4431 219.987 23.4916 219.957 23.5402C219.933 23.586 219.879 23.613 219.806 23.613H219.474C219.401 23.613 219.348 23.5887 219.323 23.5402C219.296 23.4889 219.28 23.4431 219.28 23.4026L219.291 19.4511L219.302 19.2327L219.28 19.3298L218.053 22.6069C218.026 22.6879 217.972 22.7283 217.896 22.7283H217.624C217.551 22.7283 217.497 22.6879 217.468 22.6069L216.24 19.3298L216.208 19.2327L216.211 19.2354Z" fill="#6FA52C"/>
<path fill-rule="evenodd" clip-rule="evenodd" d="M36.0226 49.3715H31.1675C27.7554 21.8163 25.1661 17.5896 12.0654 16.2059C19.7931 14.7737 31.5667 10.806 36.0226 49.3715Z" fill="#6FA52C"/>
<path fill-rule="evenodd" clip-rule="evenodd" d="M31.166 49.3716C43.7676 2.32049 55.3713 -2.48065 61.5966 0.826202C52.4879 -0.584468 42.74 22.3477 36.0616 49.7843C34.4324 49.8679 32.7952 49.7357 31.166 49.3689" fill="#6FA52C"/>
<path fill-rule="evenodd" clip-rule="evenodd" d="M34.4159 34.046C31.0443 19.683 26.0328 15.1489 21.9707 14.6634C25.5041 13.8569 31.3923 13.2824 36.571 27.729C35.8158 29.8032 35.1037 31.9124 34.4159 34.046Z" fill="#0A6324"/>
<path fill-rule="evenodd" clip-rule="evenodd" d="M37.3818 49.6674C49.1581 3.3499 60.4219 -3.06151 67.7072 3.58726C59.6613 -0.868628 48.2815 19.1963 42.5039 48.2783C40.8262 48.9769 39.1162 49.4408 37.3818 49.6647" fill="#0A6324"/>
</svg>
