<svg xmlns="http://www.w3.org/2000/svg" viewBox="0 0 20 20">
	<path d="M10,0c5.52,0,10,4.48,10,10s-4.48,10-10,10S0,15.52,0,10,4.48,0,10,0Zm0,3.12h-.24c-.97,.09-1.47,.63-2.06,1.86l-.16,.33-.33,.68c-2.09,4.28-2.7,5.69-2.81,6.46v.12l-.02,.1v.47c.25,2.6,3.21,3.51,5.61,.98h0l.1,.09,.1,.1c2.48,2.39,5.43,1.28,5.42-1.48v-.13c-.02-.6-.3-1.4-1.48-3.91l-.6-1.26-1.07-2.21-.24-.5c-.6-1.2-1.15-1.69-2.22-1.69h0Zm0,1.3h.16c.37,.05,.59,.28,.92,.94l.18,.36,.41,.82,.37,.76c.27,.57,.54,1.13,.8,1.68,.65,1.22,1.16,2.51,1.53,3.85v.09c-.06,1.59-1.77,2.07-3.48,.24l-.04-.04,.11-.16c.73-.89,1.17-1.97,1.27-3.11,.07-1.23-.86-2.28-2.09-2.35h-.34c-1.19,.12-2.08,1.16-2.01,2.35v.13c.14,1.09,.58,2.13,1.27,2.98l.11,.16-.04,.04c-1.74,1.85-3.48,1.33-3.48-.34,.24-.95,.59-1.88,1.03-2.75l.15-.33,.35-.75c.38-.82,.78-1.65,1.15-2.41l.36-.73,.24-.5c.35-.71,.57-.92,.99-.94h.08Zm-.04,4.34h.18l.08,.02c.48,.1,.81,.55,.75,1.04v.1c-.13,.78-.45,1.51-.94,2.13h0l-.12-.16c-.46-.6-.75-1.31-.84-2.07-.06-.52,.3-.99,.82-1.05h.07Z" />
</svg>
