<?xml version="1.0" encoding="UTF-8"?>
<svg id="Layer_2" data-name="Layer 2" xmlns="http://www.w3.org/2000/svg" viewBox="0 0 19.36 14.16">
  <g id="Layer_1-2" data-name="Layer 1">
    <path d="m19.36,7.08h0s0,.04,0,.06h0c0,.1-.03.19-.06.27h0s0,0,0,0c0,.02-.02.04-.02.06h0s0,0,0,0c-.04.1-.11.19-.18.26-.01.01-.02.02-.03.03l-6.62,6.15c-.38.35-.96.33-1.31-.05-.35-.37-.33-.96.05-1.31l4.9-4.55H.92c-.51,0-.92-.41-.92-.92s.41-.92.92-.92h15.16L11.18,1.6c-.37-.35-.39-.93-.05-1.31.35-.37.93-.4,1.31-.05l6.62,6.15s.02.02.03.03c.08.08.14.17.18.26h0s0,0,0,0c0,.02.01.03.02.05.04.09.06.18.06.28h0s0,.04,0,.06Z" style="fill: #6fa52c;"/>
  </g>
</svg>