<svg xmlns="http://www.w3.org/2000/svg" viewBox="0 0 20 20">
	<path d="M10,0c5.52,0,10,4.48,10,10s-4.48,10-10,10S0,15.52,0,10,4.48,0,10,0Zm-1.02,5.5h-1.03c-.23,0-.46,.08-.63,.23-.21,.19-.32,.46-.32,.74V14.5h2.99c.37,0,.74-.05,1.1-.14,1.23-.28,2.05-1.44,1.91-2.69-.03-.59-.28-1.15-.71-1.55-.17-.14-.36-.26-.56-.37,.2-.16,.38-.35,.54-.56,.28-.41,.42-.89,.4-1.38,.01-.6-.22-1.18-.65-1.6-.55-.48-1.27-.74-2-.71-.69,0-1.38,0-2.06,0h1.03Zm5.96,7l-.12,.02c-.54,.1-.9,.62-.81,1.16,.1,.54,.62,.9,1.16,.81,.26-.05,.49-.19,.64-.4,.32-.45,.22-1.07-.23-1.39-.22-.16-.49-.22-.76-.17l.12-.02Zm-6.04-1.89c.21-.08,.44-.11,.67-.08,.34-.03,.68,0,1.02,.08,.31,.12,.55,.38,.64,.7,.11,.39,.07,.8-.12,1.15-.2,.32-.55,.5-.92,.49h-1.51v-1.82c-.02-.21,.07-.41,.23-.54h0Zm.71-3.62h.38c.29,0,.57,.12,.76,.34,.18,.26,.25,.57,.21,.88-.02,.3-.18,.58-.42,.77-.17,.11-.38,.17-.58,.16h-1.29v-1.49c-.01-.16,.03-.33,.11-.47,.11-.13,.28-.21,.45-.2h.38Z" />
</svg>
