<svg width="14" height="14" viewBox="0 0 14 14" fill="none" xmlns="http://www.w3.org/2000/svg">
	<path d="M12.4432 1.2263H11.0473V0.511426C11.0473 0.235444 10.8235 0.0117188 10.5476 0.0117188C10.2716 0.0117188 10.0478 0.235444 10.0478 0.511426V1.22627H3.76342V0.511426C3.76342 0.235444 3.53969 0.0117188 3.26371 0.0117188C2.98773 0.0117188 2.764 0.235444 2.764 0.511426V1.22627H1.36807C0.620185 1.22627 0.0117188 1.83474 0.0117188 2.58262V12.6321C0.0117188 13.38 0.620185 13.9884 1.36807 13.9884H12.4432C13.1911 13.9884 13.7995 13.38 13.7995 12.6321V2.58262C13.7995 1.83476 13.1911 1.2263 12.4432 1.2263ZM1.01113 2.58265C1.01113 2.38549 1.17094 2.22571 1.36807 2.22571H2.764V2.79594C2.764 3.07193 2.98773 3.29565 3.26371 3.29565C3.53969 3.29565 3.76342 3.07193 3.76342 2.79594V2.22571H10.0478V2.79594C10.0478 3.07193 10.2716 3.29565 10.5476 3.29565C10.8235 3.29565 11.0473 3.07193 11.0473 2.79594V2.22571H12.4432C12.6403 2.22571 12.8001 2.38552 12.8001 2.58265V3.83905H1.01113V2.58265ZM12.8001 12.6321C12.8001 12.8292 12.6403 12.989 12.4432 12.989H1.36807C1.17094 12.989 1.01113 12.8292 1.01113 12.6321V4.83847H12.8001V12.6321Z" />
	<path d="M12.4431 14H1.36801C0.613692 14 0 13.3863 0 12.632V2.58257C0 1.82825 0.613692 1.21456 1.36801 1.21456H2.75226V0.511372C2.75226 0.229394 2.98165 0 3.26363 0C3.54558 0 3.775 0.229394 3.775 0.511372V1.21456H10.0361V0.511372C10.0361 0.229394 10.2655 0 10.5475 0C10.8295 0 11.0589 0.229394 11.0589 0.511372V1.21458H12.4431C13.1975 1.21458 13.8112 1.82827 13.8112 2.58259V12.632C13.8112 13.3863 13.1975 14 12.4431 14ZM1.36801 1.23788C0.626546 1.23788 0.023329 1.8411 0.023329 2.58257V12.632C0.023329 13.3735 0.626546 13.9767 1.36801 13.9767H12.4431C13.1846 13.9767 13.7878 13.3735 13.7878 12.632V2.58257C13.7878 1.8411 13.1846 1.23788 12.4431 1.23788H11.0355V0.511372C11.0355 0.242248 10.8166 0.023329 10.5475 0.023329C10.2784 0.023329 10.0595 0.242272 10.0595 0.511372V1.23788H3.7517V0.511372C3.7517 0.242248 3.53275 0.023329 3.26365 0.023329C2.99453 0.023329 2.77561 0.242272 2.77561 0.511372V1.23788H1.36801ZM12.4431 13.0006H1.36801C1.16477 13.0006 0.999413 12.8353 0.999413 12.632V4.82675H12.8117V12.632C12.8117 12.8353 12.6464 13.0006 12.4431 13.0006ZM1.02274 4.85008V12.632C1.02274 12.8224 1.17762 12.9773 1.36801 12.9773H12.4431C12.6335 12.9773 12.7884 12.8224 12.7884 12.632V4.85008H1.02274ZM12.8117 3.85066H0.999413V2.58259C0.999413 2.37935 1.16477 2.21399 1.36801 2.21399H2.77561V2.79589C2.77561 3.06499 2.99455 3.28393 3.26365 3.28393C3.53275 3.28393 3.7517 3.06499 3.7517 2.79589V2.21399H10.0595V2.79589C10.0595 3.06499 10.2784 3.28393 10.5475 3.28393C10.8166 3.28393 11.0355 3.06499 11.0355 2.79589V2.21399H12.4431C12.6464 2.21399 12.8117 2.37935 12.8117 2.58259V3.85066ZM1.02274 3.82734H12.7884V2.58259C12.7884 2.3922 12.6335 2.23732 12.4431 2.23732H11.0589V2.79589C11.0589 3.07787 10.8295 3.30726 10.5475 3.30726C10.2655 3.30726 10.0361 3.07787 10.0361 2.79589V2.23732H3.77503V2.79589C3.77503 3.07787 3.54563 3.30726 3.26365 3.30726C2.98168 3.30726 2.75228 3.07787 2.75228 2.79589V2.23732H1.36801C1.17762 2.23732 1.02274 2.3922 1.02274 2.58259V3.82734Z" />
</svg>
