<svg width="19" height="20" viewBox="0 0 19 20" fill="none" xmlns="http://www.w3.org/2000/svg">
	<path d="M17.9998 8.18984H15.1098C13.9699 8.18825 12.8771 7.73471 12.071 6.92864C11.265 6.12258 10.8114 5.02978 10.8098 3.88984V0.999839C10.8098 0.734622 10.7045 0.480268 10.5169 0.292732C10.3294 0.105196 10.0751 -0.00016125 9.80984 -0.00016125H5.56984C4.82725 -0.0426765 4.08405 0.0722753 3.38901 0.337155C2.69396 0.602034 2.06276 1.01086 1.53681 1.53681C1.01086 2.06276 0.602034 2.69396 0.337155 3.38901C0.0722753 4.08405 -0.0426765 4.82725 -0.00016125 5.56984V14.4298C-0.0426765 15.1724 0.0722753 15.9156 0.337155 16.6107C0.602034 17.3057 1.01086 17.9369 1.53681 18.4629C2.06276 18.9888 2.69396 19.3976 3.38901 19.6625C4.08405 19.9274 4.82725 20.0424 5.56984 19.9998H13.4298C14.1724 20.0424 14.9156 19.9274 15.6107 19.6625C16.3057 19.3976 16.9369 18.9888 17.4629 18.4629C17.9888 17.9369 18.3976 17.3057 18.6625 16.6107C18.9274 15.9156 19.0424 15.1724 18.9998 14.4298V9.18984C18.9998 8.92462 18.8945 8.67027 18.7069 8.48273C18.5194 8.2952 18.2651 8.18984 17.9998 8.18984ZM9.77984 13.7798L7.77984 15.7798C7.67706 15.8856 7.5445 15.9576 7.3998 15.9862C7.2551 16.0148 7.10512 15.9986 6.96984 15.9398C6.8871 15.9053 6.81226 15.8542 6.74984 15.7898C6.73984 15.7798 6.72984 15.7798 6.72984 15.7698L4.72984 13.7698C4.59736 13.6277 4.52524 13.4396 4.52866 13.2453C4.53209 13.051 4.6108 12.8656 4.74822 12.7282C4.88563 12.5908 5.07102 12.5121 5.26532 12.5087C5.45962 12.5052 5.64766 12.5774 5.78984 12.7098L6.49984 13.4398V9.24984C6.49984 9.05093 6.57886 8.86016 6.71951 8.71951C6.86016 8.57886 7.05093 8.49984 7.24984 8.49984C7.44875 8.49984 7.63952 8.57886 7.78017 8.71951C7.92082 8.86016 7.99984 9.05093 7.99984 9.24984V13.4398L8.71984 12.7198C8.86201 12.5874 9.05006 12.5152 9.24436 12.5187C9.43866 12.5221 9.62405 12.6008 9.76146 12.7382C9.89887 12.8756 9.97759 13.061 9.98101 13.2553C9.98444 13.4496 9.91232 13.6377 9.77984 13.7798Z" />
</svg>
