<svg xmlns="http://www.w3.org/2000/svg" viewBox="0 0 17.27 17.27">
	<path d="M9.63,12.16h-.05c-.15,.02-.29,.08-.4,.19l-2.68,2.68c-1.22,1.14-3.13,1.07-4.27-.16-1.08-1.16-1.08-2.95,0-4.11l2.85-2.85c.14-.14,.3-.27,.47-.39,.19-.13,.4-.23,.61-.31,.2-.07,.41-.13,.62-.15,.14-.02,.28-.03,.42-.03h.19c.73,.04,1.42,.35,1.94,.87,.32,.32,.56,.71,.71,1.13,.11,.33,.46,.52,.8,.42h.02c.34-.1,.53-.45,.44-.79-.18-.65-.53-1.23-1.02-1.7-.65-.65-1.48-1.07-2.39-1.22l-.24-.03c-.15-.02-.31-.02-.46-.02-.11,0-.22,0-.32,.01-.23,.02-.45,.05-.67,.1-.05,0-.09,.02-.13,.03-.28,.07-.55,.17-.81,.3-.43,.21-.81,.49-1.15,.82l-2.85,2.84c-.81,.84-1.26,1.95-1.26,3.11,0,2.41,1.96,4.36,4.37,4.36,1.15,0,2.26-.46,3.07-1.27l2.71-2.71c.25-.26,.25-.68-.01-.93-.14-.13-.32-.2-.51-.18h0Z" />
	<path d="M15.99,1.28c-1.71-1.7-4.46-1.7-6.17,0l-2.65,2.64c-.26,.26-.26,.68,0,.94,.11,.11,.26,.18,.41,.19,.2,.02,.39-.05,.53-.19l2.65-2.64c1.2-1.16,3.12-1.12,4.27,.08,1.12,1.17,1.12,3.02,0,4.19l-2.85,2.84c-.14,.14-.3,.27-.47,.39-.19,.13-.4,.23-.61,.31-.2,.07-.41,.13-.62,.15-.14,.02-.28,.03-.42,.03h-.19c-1.18-.07-2.21-.82-2.62-1.93-.12-.32-.46-.5-.79-.41-.36,.09-.57,.46-.48,.82v.03c.2,.59,.54,1.13,.99,1.56h0c.71,.71,1.63,1.15,2.63,1.26,.15,.02,.31,.02,.46,.02,.11,0,.22,0,.32-.01,.27-.02,.54-.07,.8-.13,.28-.07,.55-.17,.81-.3,.43-.21,.81-.49,1.15-.82l2.85-2.85c1.7-1.7,1.7-4.47,0-6.17Z" />
</svg>
