<svg xmlns="http://www.w3.org/2000/svg" viewBox="0 0 14.26 15.01">
	<path d="m13.51,6.15h-2.17c-.85,0-1.67-.34-2.28-.95-.6-.6-.94-1.42-.95-2.28V.76c0-.2-.08-.39-.22-.53-.14-.14-.33-.22-.53-.22h-3.18c-.56-.03-1.11.05-1.64.25-.52.2-.99.51-1.39.9-.39.39-.7.87-.9,1.39C.06,3.07-.03,3.63,0,4.18v6.64c-.03.56.05,1.11.25,1.64.2.52.51.99.9,1.39.39.39.87.7,1.39.9.52.2,1.08.28,1.64.25h5.89c.56.03,1.11-.05,1.64-.25.52-.2.99-.51,1.39-.9.39-.39.7-.87.9-1.39.2-.52.28-1.08.25-1.64v-3.93c0-.2-.08-.39-.22-.53-.14-.14-.33-.22-.53-.22Zm-6.16,4.19l-1.5,1.5c-.08.08-.18.13-.29.15-.11.02-.22,0-.32-.03-.06-.03-.12-.06-.16-.11,0,0-.01,0-.01-.02l-1.5-1.5c-.1-.11-.15-.25-.15-.39,0-.15.06-.28.16-.39.1-.1.24-.16.39-.16.15,0,.29.05.39.15l.53.55v-3.14c0-.15.06-.29.16-.4.11-.11.25-.16.4-.16s.29.06.4.16c.11.11.16.25.16.4v3.14l.54-.54c.11-.1.25-.15.39-.15.15,0,.28.06.39.16.1.1.16.24.16.39,0,.15-.05.29-.15.39Z" />
	<path d="m11.2,5.11c.71,0,1.7,0,2.55,0,.09,0,.19-.02.27-.07.08-.05.14-.12.18-.21.04-.09.05-.18.03-.27-.02-.09-.06-.18-.13-.25-1.08-1.09-3.02-3.05-4.12-4.16-.07-.07-.15-.12-.25-.14-.09-.02-.19-.01-.28.02-.09.04-.17.1-.22.17-.06.08-.09.17-.09.27v2.62c.01.54.23,1.05.62,1.42.39.37.9.58,1.44.58Z" />
</svg>
