<?xml version="1.0" encoding="UTF-8"?>
<svg id="Layer_2" data-name="Layer 2" xmlns="http://www.w3.org/2000/svg" viewBox="0 0 16.83 16.54">
  <g id="Layer_1-2" data-name="Layer 1">
    <path d="m8.42,0C3.78,0,0,3.71,0,8.27s3.78,8.27,8.42,8.27,8.42-3.71,8.42-8.27S13.06,0,8.42,0Zm6.97,10.12c-1.02.33-2.06.58-3.12.76.2-1.74.2-3.5,0-5.24,1.05.18,2.1.43,3.12.76.05.02.1.02.16.02.01,0,.03-.01.04-.01.16.59.25,1.21.25,1.84s-.09,1.25-.25,1.84c-.07,0-.13,0-.2.02Zm-14.14-.02c-.16-.59-.25-1.2-.25-1.84s.09-1.25.25-1.83c.07,0,.13,0,.2-.02,1.02-.33,2.06-.58,3.11-.76-.2,1.74-.2,3.5,0,5.24-1.05-.18-2.09-.43-3.11-.76-.06-.02-.13-.02-.2-.02Zm4.34-4.6c1.88-.24,3.78-.24,5.66,0,.24,1.84.24,3.7,0,5.53-1.88.24-3.78.24-5.66,0-.24-1.84-.24-3.7,0-5.53Zm9.6-.18c-1-.3-2.02-.55-3.05-.71-.17-1.01-.42-2-.72-2.98,1.68.73,3.02,2.05,3.77,3.69ZM10.29,1.24c0,.06,0,.13.03.19.34.99.59,2.01.77,3.04-1.78-.2-3.57-.2-5.35,0,.19-1.03.44-2.05.77-3.04.02-.06.02-.13.02-.19.6-.16,1.23-.25,1.88-.25s1.28.09,1.88.24Zm-5.15.51s.07.02.11.02h.1c-.28.93-.49,1.87-.65,2.82-1.03.16-2.06.41-3.06.72.71-1.55,1.95-2.81,3.5-3.56ZM1.77,11.48s.02-.07.02-.1v-.1c.95.28,1.93.49,2.91.65.16.96.37,1.91.65,2.84h-.1s-.07.01-.1.02c-1.46-.71-2.65-1.87-3.37-3.31Zm4.76,3.81c0-.06,0-.13-.02-.19-.34-.99-.59-2.01-.77-3.04.89.1,1.78.17,2.68.17s1.79-.06,2.68-.17c-.19,1.03-.44,2.05-.77,3.04-.02.06-.03.13-.02.19-.6.15-1.23.24-1.88.24s-1.28-.09-1.88-.25Zm4.88-.38c.31-.98.56-1.98.73-2.99.98-.16,1.95-.36,2.9-.64v.1s.01.07.02.1c-.77,1.52-2.06,2.74-3.65,3.44Z" style="fill: #01671d;"/>
  </g>
</svg>