<svg xmlns="http://www.w3.org/2000/svg" viewBox="0 0 21.34 21.34">
	<path d="M10.67,5.2c-3.02,0-5.47,2.45-5.47,5.47s2.45,5.47,5.47,5.47,5.47-2.45,5.47-5.47h0c0-3.02-2.44-5.47-5.45-5.47,0,0-.01,0-.02,0Zm0,9.03c-1.96,0-3.56-1.59-3.56-3.56s1.59-3.56,3.56-3.56,3.56,1.59,3.56,3.56h0c0,1.96-1.59,3.55-3.56,3.56Zm6.97-9.25c0,.7-.57,1.28-1.28,1.28s-1.28-.57-1.28-1.28,.57-1.28,1.28-1.28h0c.7,0,1.27,.57,1.28,1.27h0Zm3.62,1.3c.04-1.66-.58-3.26-1.72-4.47C18.33,.66,16.73,.04,15.07,.07,13.31-.02,8.03-.02,6.27,.07,4.61,.04,3.01,.66,1.8,1.79,.66,3,.04,4.6,.08,6.26-.03,8.02-.03,13.3,.08,15.06c-.04,1.66,.58,3.26,1.72,4.47,1.21,1.14,2.81,1.76,4.47,1.73,1.76,.1,7.04,.1,8.8,0,1.66,.04,3.26-.58,4.47-1.72,1.14-1.21,1.76-2.82,1.73-4.48,.1-1.76,.1-7.03,0-8.79Zm-2.27,10.69c-.37,.93-1.1,1.66-2.03,2.03-1.4,.56-4.74,.43-6.29,.43s-4.89,.12-6.29-.43c-.93-.37-1.66-1.1-2.03-2.03-.56-1.4-.43-4.74-.43-6.29s-.12-4.89,.43-6.29c.37-.93,1.1-1.66,2.03-2.03,1.4-.56,4.74-.43,6.29-.43s4.89-.12,6.29,.43c.93,.37,1.66,1.1,2.03,2.03,.56,1.4,.43,4.74,.43,6.29s.13,4.89-.43,6.29Z" />
</svg>
