<svg width="14" height="15" viewBox="0 0 14 15" fill="none" xmlns="http://www.w3.org/2000/svg">
	<path opacity="0.5" d="M3.28669 14.7149H0.437085V5.53954H3.28669V14.7149ZM1.85718 4.28804C1.52962 4.28896 1.20914 4.19281 0.936174 4.01175C0.663211 3.83068 0.450011 3.5728 0.323485 3.27067C0.19696 2.96853 0.162781 2.63568 0.225263 2.31414C0.287746 1.9926 0.444089 1.69677 0.674557 1.46401C0.905024 1.23124 1.19929 1.07198 1.52019 1.00631C1.8411 0.940643 2.17427 0.971521 2.47765 1.09505C2.78102 1.21857 3.041 1.4292 3.22476 1.70036C3.40853 1.97151 3.50784 2.29103 3.51017 2.61858C3.51163 3.05895 3.33847 3.48193 3.02863 3.79486C2.71879 4.10779 2.29754 4.28513 1.85718 4.28804ZM13.9464 14.7172H11.1101V10.2476C11.1101 9.18348 11.089 7.81671 9.62889 7.81671C8.14763 7.81671 7.92023 8.97333 7.92023 10.1692V14.7125H5.07219V5.53954H7.80417V6.79418H7.84416C8.11748 6.32648 8.51257 5.9417 8.98733 5.68084C9.4621 5.41999 9.99874 5.29283 10.5401 5.31292C13.4234 5.31292 13.9535 7.21135 13.9535 9.67828V14.718L13.9464 14.7172Z" />
</svg>
