<svg xmlns="http://www.w3.org/2000/svg" viewBox="0 0 21.49 18.07">
	<path d="M6.22,1.4h5.02c2.66,0,4.82,1.97,4.82,4.39s-2.16,4.39-4.82,4.39h-2.51c-.39,0-.7,.31-.7,.7s.31,.7,.7,.7h2.51c3.43,0,6.22-2.6,6.22-5.79S14.68,0,11.25,0H6.22C2.79,0,0,2.6,0,5.79c0,1.35,.52,2.67,1.46,3.71,.26,.29,.7,.31,.99,.05,.29-.26,.31-.7,.05-.99-.71-.78-1.1-1.77-1.1-2.77C1.4,3.37,3.56,1.4,6.22,1.4Z" />
	<path d="M20.03,8.57c-.26-.29-.7-.31-.99-.05-.29,.26-.31,.7-.05,.99,.71,.78,1.1,1.77,1.1,2.77,0,2.42-2.16,4.39-4.82,4.39h-5.02c-2.66,0-4.82-1.97-4.82-4.39s2.16-4.39,4.82-4.39h2.51c.39,0,.7-.31,.7-.7s-.31-.7-.7-.7h-2.51c-3.43,0-6.22,2.6-6.22,5.79s2.79,5.79,6.22,5.79h5.02c3.43,0,6.22-2.6,6.22-5.79,0-1.35-.52-2.67-1.46-3.71Z" />
</svg>
