<?xml version="1.0" encoding="UTF-8"?>
<svg id="Layer_2" data-name="Layer 2" xmlns="http://www.w3.org/2000/svg" viewBox="0 0 19.5 19.5">
  <g id="Layer_1-2" data-name="Layer 1">
    <path d="m10.33,19.5c-.17,0-.33-.02-.5-.05-.54-.11-1.04-.41-1.4-.84-.35-.43-.55-.97-.56-1.53v-5.45H2.44c-.56,0-1.11-.2-1.54-.56-.43-.36-.73-.85-.84-1.4-.11-.55-.04-1.12.22-1.62.25-.5.67-.89,1.19-1.12L16.13.15c.45-.16.93-.2,1.4-.09.47.1.89.34,1.23.68.34.34.57.76.67,1.23.1.47.07.95-.09,1.4l-6.78,14.68c-.22.5-.62.92-1.12,1.18-.35.18-.73.27-1.12.27Zm-1.7-9.38h.75v6.94c0,.21.08.42.22.59.14.17.33.29.54.33.21.04.44.01.63-.08.19-.1.35-.26.44-.46l6.76-14.64c.04-.12.06-.32.01-.51-.04-.19-.13-.36-.27-.49-.14-.14-.31-.23-.5-.27-.18-.04-.36-.03-.54.03L2.08,8.29c-.21.09-.37.25-.47.44-.1.19-.13.42-.09.63.04.21.16.41.33.54.17.14.38.22.6.22h6.18Z" style="fill: #008826;"/>
  </g>
</svg>