<svg width="16" height="17" viewBox="0 0 16 17" fill="none" xmlns="http://www.w3.org/2000/svg">
	<path d="M7.69129 0.779297C5.65143 0.779297 3.69512 1.58951 2.25273 3.03169C0.81033 4.47387 0 6.42989 0 8.46944C0 10.509 0.81033 12.465 2.25273 13.9072C3.69512 15.3494 5.65143 16.1596 7.69129 16.1596C7.84027 16.1546 7.98147 16.0919 8.08509 15.9847C8.18871 15.8776 8.24663 15.7343 8.24663 15.5853C8.24663 15.4363 8.18871 15.293 8.08509 15.1859C7.98147 15.0787 7.84027 15.016 7.69129 15.011C6.39742 15.0109 5.13264 14.6271 4.05688 13.9083C2.98111 13.1895 2.14268 12.1679 1.6476 10.9727C1.15252 9.77746 1.02302 8.46229 1.27547 7.19348C1.52792 5.92466 2.15099 4.75918 3.0659 3.84441C3.9808 2.92965 5.14645 2.30667 6.41546 2.05425C7.68446 1.80183 8.99983 1.93132 10.1952 2.42633C11.3906 2.92134 12.4124 3.75964 13.1313 4.83524C13.8502 5.91085 14.234 7.17544 14.2341 8.46912V10.2478C14.2341 10.5673 14.1072 10.8737 13.8813 11.0996C13.6553 11.3255 13.3488 11.4524 13.0293 11.4524C12.7097 11.4524 12.4033 11.3255 12.1773 11.0996C11.9514 10.8737 11.8244 10.5673 11.8244 10.2478V8.46912C11.8266 7.49645 11.486 6.55411 10.8625 5.80751C10.239 5.0609 9.37236 4.55774 8.41477 4.38635C7.45718 4.21495 6.46981 4.38628 5.62597 4.87025C4.78213 5.35422 4.13575 6.1199 3.80028 7.03291C3.46482 7.94591 3.4617 8.94788 3.79149 9.86295C4.12128 10.778 4.7629 11.5477 5.60371 12.0369C6.44453 12.5261 7.43082 12.7036 8.38945 12.5381C9.34809 12.3727 10.2178 11.8749 10.846 11.1322C11.0513 11.6379 11.4261 12.0565 11.9061 12.3164C12.3861 12.5762 12.9416 12.6612 13.4773 12.5567C14.0131 12.4522 14.4959 12.1647 14.843 11.7435C15.1902 11.3223 15.3801 10.7935 15.3803 10.2478V8.46912C15.3786 6.43052 14.568 4.47588 13.1264 3.03419C11.6849 1.5925 9.73019 0.781542 7.69129 0.779297ZM7.69129 11.4531C7.10116 11.4531 6.52428 11.2781 6.0336 10.9503C5.54293 10.6225 5.16049 10.1566 4.93466 9.61143C4.70882 9.0663 4.64974 8.46646 4.76487 7.88775C4.87999 7.30905 5.16417 6.77747 5.58145 6.36025C5.99874 5.94303 6.53039 5.65889 7.10918 5.54378C7.68798 5.42867 8.28791 5.48775 8.83312 5.71355C9.37833 5.93935 9.84433 6.32173 10.1722 6.81233C10.5 7.30293 10.675 7.87973 10.675 8.46977C10.675 9.26099 10.3607 10.0198 9.80112 10.5793C9.24156 11.1388 8.48263 11.4531 7.69129 11.4531Z" />
</svg>
