<svg width="14" height="15" viewBox="0 0 14 15" fill="none" xmlns="http://www.w3.org/2000/svg">
	<path d="M10.0536 8.56512C9.73659 8.56416 9.42532 8.64966 9.1533 8.81243C8.88127 8.97519 8.65878 9.20905 8.50979 9.48883C8.46689 9.55146 8.43675 9.62192 8.42108 9.69619C8.40542 9.77046 8.40454 9.8471 8.41849 9.92171C8.44667 10.0724 8.53356 10.2057 8.66005 10.2923C8.78654 10.379 8.94227 10.4118 9.09297 10.3836C9.16759 10.3697 9.23873 10.3412 9.30233 10.2997C9.36593 10.2583 9.42075 10.2047 9.46364 10.1421C9.71779 9.77039 9.83343 9.71225 9.98631 9.71944C11.0099 10.1621 11.9209 10.8292 12.6519 11.6714C12.7014 11.8078 12.6995 11.9576 12.6467 12.0927C12.5765 12.3572 12.4527 12.6045 12.2829 12.819C12.113 13.0336 11.9008 13.2108 11.6595 13.3398C11.4219 13.4343 11.1673 13.4786 10.9117 13.47C10.6561 13.4613 10.4051 13.3999 10.1745 13.2895C8.17631 12.4916 6.35564 11.3065 4.81717 9.8024C3.31768 8.26589 2.13611 6.44864 1.34016 4.45478C1.22986 4.22411 1.16846 3.97313 1.1598 3.71761C1.15115 3.46208 1.19542 3.20752 1.28985 2.96991C1.41881 2.72876 1.59603 2.51673 1.81049 2.34702C2.02495 2.17732 2.27204 2.05357 2.5364 1.98349C2.6712 1.93027 2.82076 1.92795 2.95715 1.97695C3.79749 2.7057 4.46407 3.61327 4.90798 4.63312C4.91582 4.79579 4.85768 4.91011 4.48659 5.16423C4.42396 5.20712 4.37039 5.26193 4.32894 5.32552C4.28749 5.38912 4.25898 5.46025 4.24503 5.53487C4.23107 5.60948 4.23195 5.68611 4.24762 5.76038C4.26328 5.83466 4.29342 5.90512 4.33632 5.96774C4.37922 6.03037 4.43403 6.08393 4.49764 6.12537C4.56124 6.16682 4.63238 6.19533 4.707 6.20928C4.78162 6.22323 4.85826 6.22235 4.93254 6.20669C5.00682 6.19103 5.07728 6.16089 5.13992 6.11799C5.41941 5.9688 5.65293 5.74624 5.81536 5.47425C5.97779 5.20225 6.06298 4.89112 6.06176 4.57433C5.59289 3.08246 4.6426 1.78811 3.3596 0.893842C2.97512 0.751439 2.55278 0.748896 2.16662 0.886656C1.75154 1.00535 1.36574 1.2092 1.0338 1.48521C0.701861 1.76122 0.431057 2.10334 0.238645 2.48977C0.0762592 2.87021 -0.00494222 3.28035 0.000232663 3.69396C0.00540754 4.10757 0.0968448 4.51555 0.268698 4.89182C1.12388 7.02814 2.39277 8.97446 4.00247 10.619L4.01423 10.6307C5.65835 12.2377 7.60344 13.5044 9.73804 14.3583C10.1463 14.5305 10.584 14.6219 11.0271 14.6274C11.4103 14.6286 11.7893 14.5466 12.1377 14.387C12.5243 14.1945 12.8664 13.9237 13.1425 13.5916C13.4185 13.2596 13.6224 12.8737 13.741 12.4586C13.8782 12.0733 13.8759 11.6521 13.7345 11.2683C12.8394 9.9847 11.5437 9.03439 10.0503 8.56643L10.0536 8.56512Z" />
</svg>
