<svg xmlns="http://www.w3.org/2000/svg" viewBox="0 0 13 16">
	<path d="M6.72,0C2.33,0,0,2.81,0,5.87c0,1.42,.79,3.19,2.07,3.76,.19,.09,.3,.05,.34-.13,.04-.14,.21-.79,.29-1.1,.02-.1,.01-.19-.07-.28-.42-.49-.76-1.38-.76-2.21C1.87,3.77,3.57,1.7,6.46,1.7c2.5,0,4.25,1.62,4.25,3.95,0,2.63-1.39,4.44-3.19,4.44-1,0-1.74-.78-1.51-1.75,.29-1.16,.84-2.4,.84-3.23,0-.75-.42-1.37-1.28-1.37-1.02,0-1.84,1.01-1.84,2.36,0,.86,.3,1.44,.3,1.44,0,0-1.01,4.06-1.19,4.82-.32,1.28,.04,3.37,.07,3.55,.02,.1,.13,.13,.19,.05,.1-.13,1.32-1.87,1.66-3.12,.12-.46,.63-2.31,.63-2.31,.34,.61,1.3,1.11,2.33,1.11,3.06,0,5.28-2.69,5.28-6.04-.01-3.2-2.75-5.6-6.28-5.6Z" />
</svg>
