<svg width="39" height="38" viewBox="0 0 39 38" fill="none" xmlns="http://www.w3.org/2000/svg">
	<path d="M1.3235 11.4321C2.05461 11.4321 2.64701 10.8423 2.64701 10.1148V4.49796L11.1713 12.9808C11.4298 13.2379 11.7684 13.3665 12.1071 13.3665C12.4459 13.3665 12.7847 13.2379 13.043 12.9806C13.5599 12.4662 13.5599 11.632 13.0429 11.1177L4.51827 2.6347H10.1626C10.8935 2.6347 11.4861 2.04488 11.4861 1.31735C11.4861 0.589821 10.8937 0 10.1626 0H1.3235C0.592401 0 0 0.589821 0 1.31735V10.115C0 10.8423 0.592401 11.4321 1.3235 11.4321Z" />
	<path d="M36.6782 26.3928C35.9471 26.3928 35.3547 26.9827 35.3547 27.7102V33.3272L26.568 24.5814C26.051 24.0669 25.2131 24.0669 24.6962 24.5814C24.1794 25.0959 24.1794 25.93 24.6962 26.4443L33.4827 35.1899H27.8398C27.1087 35.1899 26.5163 35.7797 26.5163 36.5073C26.5163 37.2348 27.1087 37.8246 27.8398 37.8246H36.6784C37.4095 37.8246 38.0019 37.2348 38.0019 36.5073V27.7102C38.0017 26.9827 37.4091 26.3928 36.6782 26.3928Z" />
	<path d="M11.4338 24.5814L2.64799 33.327V27.7102C2.64799 26.9827 2.05558 26.3929 1.32448 26.3929C0.593377 26.3929 0.000976562 26.9827 0.000976562 27.7102V36.5077C0.000976562 37.2352 0.593377 37.825 1.32448 37.825H10.1627C10.8936 37.825 11.4862 37.2352 11.4862 36.5077C11.4862 35.7801 10.8938 35.1903 10.1627 35.1903H4.5196L13.3056 26.4443C13.8224 25.9299 13.8224 25.0957 13.3054 24.5813C12.7889 24.067 11.9508 24.067 11.4338 24.5814Z" />
	<path d="M36.6792 0H27.8406C27.1095 0 26.5171 0.589821 26.5171 1.31735C26.5171 2.04488 27.1095 2.6347 27.8406 2.6347H33.4839L24.9609 11.1186C24.444 11.6331 24.444 12.4672 24.9611 12.9817C25.2194 13.2388 25.5582 13.3674 25.8969 13.3674C26.2355 13.3674 26.5743 13.2387 26.8328 12.9815L35.3559 4.4976V10.1148C35.3559 10.8423 35.9483 11.4321 36.6794 11.4321C37.4105 11.4321 38.0029 10.8423 38.0029 10.1148V1.31735C38.0027 0.589645 37.4101 0 36.6792 0Z" />
</svg>
