<svg width="33" height="13" viewBox="0 0 33 13" fill="none" xmlns="http://www.w3.org/2000/svg">
<path opacity="0.5" d="M24.19 12.8651H22.27C22.03 12.8651 21.95 12.7251 22.03 12.4451L25.19 0.425112C25.2254 0.29618 25.3048 0.183664 25.4143 0.106985C25.5239 0.0303054 25.6567 -0.00572512 25.79 0.00511209H28.45C28.5846 -0.013568 28.7212 0.0193487 28.8325 0.0972542C28.9438 0.17516 29.0215 0.292286 29.05 0.425112L32.21 12.4451C32.29 12.7251 32.21 12.8651 31.97 12.8651H30.05C29.9965 12.8715 29.9423 12.8668 29.8906 12.8513C29.839 12.8358 29.7912 12.8099 29.75 12.7751C29.6819 12.6774 29.6406 12.5637 29.63 12.4451L29.07 10.2451H25.17L24.61 12.4451C24.6 12.5655 24.5548 12.6803 24.48 12.7751C24.3989 12.8421 24.2947 12.8744 24.19 12.8651ZM27.09 2.42511L25.65 8.20511H28.61L27.17 2.42511H27.09Z"/>
<path d="M11.752 12.8662H10.216C10.024 12.8662 9.96 12.7542 10.024 12.5302L12.552 2.91424C12.5803 2.81107 12.6438 2.72104 12.7314 2.65969C12.8191 2.59834 12.9254 2.56953 13.032 2.57824H15.16C15.2676 2.56344 15.3769 2.58983 15.4659 2.65213C15.5549 2.71443 15.6171 2.80805 15.64 2.91424L18.168 12.5302C18.232 12.7542 18.168 12.8662 17.976 12.8662H16.44C16.3972 12.8714 16.3538 12.8676 16.3125 12.8552C16.2712 12.8428 16.2329 12.8221 16.2 12.7942C16.1441 12.7165 16.1096 12.6255 16.1 12.5302L15.656 10.7662H12.54L12.088 12.5302C12.0812 12.6261 12.0464 12.7179 11.988 12.7942C11.9554 12.8214 11.9178 12.8417 11.8773 12.8541C11.8367 12.8664 11.7942 12.8706 11.752 12.8662ZM14.072 4.51424L12.92 9.13824H15.288L14.14 4.51424H14.072Z"/>
<path opacity="0.5" d="M1.314 12.719H0.162C0.018 12.719 -0.03 12.635 0.018 12.467L1.918 5.25504C1.93936 5.17774 1.98699 5.1103 2.05269 5.06431C2.11839 5.01832 2.19806 4.99666 2.278 5.00304H3.878C3.95873 4.99188 4.04069 5.01165 4.10746 5.05839C4.17422 5.10512 4.22085 5.17537 4.238 5.25504L6.13 12.467C6.17533 12.635 6.126 12.719 5.982 12.719H4.83C4.7979 12.7229 4.76536 12.72 4.73439 12.7107C4.70343 12.7014 4.67471 12.6859 4.65 12.665C4.60884 12.6059 4.584 12.5369 4.578 12.465L4.242 11.145H1.902L1.566 12.467C1.5604 12.54 1.53325 12.6096 1.488 12.667C1.4391 12.7066 1.37658 12.7253 1.314 12.719ZM3.054 6.45504L2.19 9.91904H3.966L3.102 6.45504H3.054Z"/>
</svg>
