<svg xmlns="http://www.w3.org/2000/svg" viewBox="0 0 20 20">
	<path d="M10,20c5.52,0,10-4.48,10-10S15.52,0,10,0,0,4.48,0,10c0,5.52,4.47,10,9.99,10,0,0,0,0,.01,0Zm7.36-13.28l-1.19,1.31c.76,.7,1.19,1.69,1.17,2.72,0,2.03-1.65,3.67-3.68,3.67-.92,0-1.81-.35-2.48-.97l-1.17,1.28-1.19-1.28c-1.49,1.38-3.81,1.29-5.19-.2-.63-.68-.98-1.57-.98-2.49-.01-1.04,.42-2.03,1.19-2.72l-1.19-1.31h2.67c2.83-1.93,6.55-1.93,9.39,0h2.67ZM3.83,10.72c0,1.38,1.1,2.49,2.48,2.5,0,0,.01,0,.02,0,1.38-.01,2.49-1.12,2.5-2.5,0-1.38-1.12-2.5-2.5-2.5s-2.5,1.12-2.5,2.5Zm3.42-3.69c1.58,.53,2.67,1.98,2.75,3.64,.09-1.66,1.18-3.1,2.75-3.64-.87-.37-1.81-.56-2.75-.55-.94,0-1.88,.19-2.75,.56h0Zm3.92,3.69c0,1.38,1.13,2.49,2.5,2.48,1.38,0,2.49-1.13,2.48-2.5,0-1.38-1.13-2.49-2.5-2.48-.66,0-1.29,.27-1.75,.73-.47,.47-.73,1.11-.73,1.77Zm1.19,.03c0-.72,.59-1.3,1.3-1.3s1.3,.59,1.3,1.3c0,.72-.59,1.3-1.3,1.3-.34,0-.67-.14-.91-.38-.24-.25-.38-.58-.38-.92Zm-6.03,1.31c.72,0,1.31-.58,1.31-1.31,0-.72-.58-1.31-1.3-1.31-.72,0-1.31,.58-1.31,1.31h0c0,.72,.58,1.3,1.29,1.31h.01Z" />
</svg>
