<svg width="19" height="15" viewBox="0 0 19 15" fill="none" xmlns="http://www.w3.org/2000/svg">
	<path opacity="0.5" d="M18.0489 2.6168C17.4084 2.90006 16.7296 3.08689 16.0344 3.17119C16.7673 2.73271 17.3158 2.04264 17.5776 1.22964C16.8894 1.63941 16.1358 1.92749 15.3498 2.08122C14.8692 1.56685 14.245 1.20906 13.5582 1.05441C12.8715 0.899755 12.1541 0.955411 11.4994 1.21413C10.8448 1.47285 10.2832 1.92265 9.88768 2.50498C9.49219 3.08732 9.28117 3.77522 9.28207 4.47915C9.28061 4.74972 9.31115 5.01951 9.37303 5.28291C7.97756 5.21379 6.61234 4.85124 5.36645 4.2189C4.12055 3.58656 3.02197 2.69865 2.14238 1.61309C1.69321 2.38664 1.5559 3.30235 1.75842 4.17362C1.96094 5.04489 2.48805 5.80616 3.23235 6.3023C2.67314 6.28856 2.1258 6.13806 1.63818 5.86396V5.90709C1.63804 6.71753 1.91831 7.50306 2.43143 8.13037C2.94454 8.75769 3.6589 9.18816 4.45327 9.34872C4.15216 9.43042 3.84154 9.47182 3.52954 9.47184C3.3081 9.47227 3.08717 9.45046 2.87007 9.40675C3.09413 10.1042 3.53063 10.7142 4.11849 11.1513C4.70635 11.5885 5.41616 11.8309 6.1486 11.8447C4.90564 12.8202 3.37035 13.3486 1.7903 13.3448C1.51065 13.3442 1.23126 13.3272 0.953613 13.2938C2.55094 14.3336 4.41675 14.8851 6.32269 14.8809C7.63722 14.8903 8.94051 14.6383 10.1568 14.1396C11.3731 13.6408 12.4781 12.9053 13.4077 11.9758C14.3372 11.0463 15.0727 9.94123 15.5714 8.72494C16.0701 7.50865 16.3221 6.20537 16.3128 4.89083C16.3128 4.73871 16.3128 4.58658 16.3018 4.43838C16.9877 3.93982 17.5794 3.32298 18.0489 2.6168Z" />
</svg>
