<svg xmlns="http://www.w3.org/2000/svg" viewBox="0 0 14.19 18"><path d="m13.61,0h-7.35c-.08,0-.15.02-.22.05-.07.03-.13.07-.18.12L.17,5.91c-.16.17-.21.41-.12.63.09.21.3.35.53.35h5.69c.32,0,.58-.26.58-.58V1.15h6.19v15.7H1.15V7.96c0-.32-.26-.58-.58-.58s-.58.26-.58.58v9.47c0,.32.26.58.58.58h13.04c.32,0,.58-.26.58-.58V.58c0-.32-.26-.58-.58-.58Zm-7.92,5.74H1.96l3.74-3.77v3.77Zm1.4,9.71c.32,0,.58-.26.58-.58v-4.62l2.39,2.39c.11.11.26.17.41.17s.29-.06.41-.17c.23-.22.23-.59,0-.81l-3.37-3.37c-.1-.11-.25-.17-.41-.17s-.3.06-.41.17h0s-3.37,3.37-3.37,3.37c-.22.22-.22.59,0,.81.22.22.59.22.81,0l2.39-2.39v4.62c0,.32.26.58.58.58Z"/></svg>