<svg xmlns="http://www.w3.org/2000/svg" viewBox="0 0 16 9.13">
	<path d="M15.92,8.24s-.04-.08-.05-.1c-.28-.5-.81-1.11-1.59-1.84l-.02-.02h0v-.02h-.02c-.36-.34-.58-.57-.67-.68-.17-.22-.21-.45-.12-.67,.07-.17,.32-.54,.75-1.09,.23-.29,.41-.53,.54-.71,.96-1.28,1.38-2.09,1.25-2.45l-.05-.08c-.03-.05-.12-.1-.26-.14-.14-.04-.32-.05-.53-.02l-2.4,.02s-.09-.01-.17,0l-.11,.03-.04,.02-.03,.03s-.06,.05-.09,.09c-.03,.04-.06,.09-.08,.15-.26,.67-.56,1.3-.89,1.87-.21,.34-.39,.64-.57,.9-.17,.25-.32,.44-.43,.56-.12,.12-.22,.22-.32,.29-.09,.07-.17,.1-.22,.09-.05-.01-.1-.02-.14-.03-.08-.05-.14-.12-.19-.2-.05-.09-.08-.19-.1-.32-.02-.13-.03-.24-.03-.34,0-.09,0-.23,0-.4,0-.17,0-.29,0-.35,0-.21,0-.44,.01-.69,0-.25,.02-.44,.02-.59,0-.14,0-.3,0-.46s0-.29-.03-.38c-.02-.09-.05-.18-.09-.27-.04-.09-.1-.15-.17-.2-.07-.05-.17-.08-.28-.11C8.53,.04,8.15,0,7.7,0c-1.03-.01-1.7,.06-1.99,.2-.12,.06-.22,.14-.32,.25-.1,.12-.11,.19-.04,.2,.33,.05,.57,.17,.71,.36l.05,.1c.04,.07,.08,.2,.12,.38,.04,.18,.06,.39,.07,.61,.03,.41,.03,.75,0,1.04-.03,.29-.05,.51-.08,.67-.03,.16-.06,.29-.11,.39-.05,.1-.08,.16-.1,.18-.02,.02-.03,.04-.04,.04-.07,.03-.15,.04-.22,.04s-.17-.04-.28-.12c-.11-.08-.23-.18-.35-.32-.12-.14-.25-.33-.4-.57-.15-.24-.31-.53-.47-.87l-.13-.24c-.08-.16-.2-.38-.34-.68-.14-.3-.27-.58-.38-.86-.04-.12-.11-.21-.2-.27l-.04-.03s-.07-.05-.13-.07c-.06-.03-.12-.04-.19-.05l-2.28,.02c-.23,0-.39,.05-.47,.16l-.03,.05s-.03,.07-.03,.13,.02,.14,.05,.22c.33,.78,.7,1.54,1.09,2.27,.39,.73,.73,1.31,1.02,1.76,.29,.44,.58,.86,.88,1.26,.3,.39,.5,.65,.6,.76,.1,.11,.17,.19,.23,.25l.21,.2c.13,.13,.33,.29,.59,.48,.26,.19,.54,.37,.86,.55,.31,.18,.68,.33,1.1,.44,.42,.11,.82,.16,1.22,.14h.96c.19-.02,.34-.08,.44-.18l.03-.04s.04-.08,.06-.15c.02-.07,.03-.15,.03-.23,0-.24,.01-.45,.05-.65,.04-.19,.09-.34,.14-.43,.05-.1,.11-.18,.18-.25,.07-.07,.11-.11,.14-.12,.03-.01,.05-.02,.07-.03,.13-.04,.29,0,.47,.13,.18,.13,.35,.29,.51,.48,.16,.19,.35,.41,.57,.65,.22,.24,.42,.42,.58,.53l.17,.1c.11,.07,.26,.13,.43,.18,.18,.06,.33,.07,.47,.04l2.13-.03c.21,0,.38-.03,.49-.1,.12-.07,.19-.15,.21-.23,.02-.08,.02-.18,0-.28-.02-.11-.04-.18-.06-.22Z" />
</svg>
