<svg width="18" height="18" viewBox="0 0 18 18" fill="none" xmlns="http://www.w3.org/2000/svg">
	<path d="M15.18 2.5932C13.662 1.0766 11.6447 0.163148 9.50356 0.0228534C7.36237 -0.117442 5.24314 0.524972 3.54025 1.83054C1.83736 3.13611 0.666806 5.01591 0.246424 7.1201C-0.173958 9.22429 0.184468 11.4096 1.255 13.2692L0 17.8492L4.691 16.6182C5.98801 17.3252 7.4418 17.6952 8.919 17.6942C11.2734 17.6951 13.533 16.7664 15.2063 15.11C16.8795 13.4536 17.8311 11.2035 17.854 8.8492C17.8413 7.68187 17.5986 6.52848 17.1397 5.45502C16.6809 4.38156 16.015 3.40908 15.18 2.5932ZM8.923 16.2062C7.60505 16.2073 6.31111 15.8536 5.177 15.1822L4.91 15.0232L2.128 15.7492L2.869 13.0352L2.694 12.7562C2.10553 11.7873 1.74856 10.6957 1.65087 9.56631C1.55318 8.43692 1.7174 7.30023 2.13076 6.24467C2.54412 5.18912 3.19547 4.24319 4.03411 3.48047C4.87276 2.71776 5.87608 2.15885 6.96601 1.84722C8.05594 1.5356 9.20308 1.47967 10.3182 1.68379C11.4332 1.8879 12.4862 2.34656 13.395 3.02408C14.3039 3.70159 15.0442 4.57967 15.5583 5.59001C16.0723 6.60034 16.3464 7.71567 16.359 8.8492C16.3382 10.8076 15.5456 12.6788 14.1533 14.0563C12.761 15.4337 10.8815 16.2063 8.923 16.2062ZM12.956 10.6992C12.737 10.5872 11.649 10.0532 11.446 9.9822C11.243 9.9112 11.095 9.8702 10.946 10.0942C10.797 10.3182 10.376 10.8112 10.246 10.9632C10.116 11.1152 9.987 11.1302 9.768 11.0192C8.49466 10.511 7.43307 9.58308 6.759 8.3892C6.532 7.9982 6.986 8.0262 7.409 7.1822C7.43783 7.12105 7.4511 7.05371 7.44761 6.98619C7.44412 6.91867 7.42398 6.85306 7.389 6.7952C7.333 6.6832 6.889 5.5952 6.708 5.1532C6.527 4.7112 6.345 4.7822 6.208 4.7742C6.071 4.7662 5.933 4.7662 5.786 4.7662C5.67408 4.76928 5.56398 4.79527 5.46251 4.84257C5.36103 4.88987 5.27032 4.95747 5.196 5.0412C4.9463 5.27835 4.74864 5.56483 4.61557 5.88245C4.48249 6.20007 4.41692 6.54189 4.423 6.8862C4.49587 7.71945 4.80845 8.51377 5.323 9.1732C6.27202 10.5941 7.5734 11.7446 9.1 12.5122C9.90245 12.9765 10.8328 13.1707 11.754 13.0662C12.0617 13.0038 12.3531 12.878 12.6096 12.6969C12.8661 12.5158 13.0822 12.2833 13.244 12.0142C13.3884 11.6835 13.4329 11.3178 13.372 10.9622C13.323 10.8622 13.175 10.8072 12.956 10.6992Z" />
</svg>
