<svg width="17" height="12" viewBox="0 0 17 12" fill="none" xmlns="http://www.w3.org/2000/svg">
	<path opacity="0.5" d="M15.8559 2.2894C15.7641 1.94495 15.5835 1.63061 15.3323 1.37771C15.081 1.12482 14.7679 0.942222 14.4241 0.848133C13.1616 0.507813 8.09753 0.507812 8.09753 0.507812C8.09753 0.507812 3.03349 0.507813 1.77101 0.848133C1.42717 0.942222 1.11401 1.12482 0.862773 1.37771C0.611531 1.63061 0.430989 1.94495 0.339154 2.2894C0.10574 3.5831 -0.0076591 4.89559 0.000401229 6.21015C-0.0076591 7.52471 0.10574 8.8372 0.339154 10.1309C0.431394 10.4726 0.612468 10.7838 0.863967 11.0328C1.11547 11.2818 1.42842 11.4598 1.77101 11.5486C3.03349 11.889 8.09753 11.889 8.09753 11.889C8.09753 11.889 13.1616 11.889 14.4241 11.5486C14.7666 11.4598 15.0796 11.2818 15.3311 11.0328C15.5826 10.7838 15.7637 10.4726 15.8559 10.1309C16.0893 8.8372 16.2027 7.52471 16.1947 6.21015C16.2027 4.89559 16.0893 3.5831 15.8559 2.2894ZM6.44141 8.61984V3.80124L10.6758 6.20936L6.44141 8.6167V8.61984Z" />
</svg>
